<svg width="546" height="443" viewBox="0 0 546 443" fill="none" xmlns="http://www.w3.org/2000/svg">
<path d="M190.785 134.942H261.237" stroke="#3F3D56" stroke-width="2" stroke-miterlimit="10"/>
<path d="M106.855 212.565C110.666 202.612 111.218 193.576 108.088 192.382C104.958 191.187 99.3319 198.288 95.5213 208.241C91.7107 218.193 91.1588 227.23 94.2885 228.424C97.4183 229.618 103.045 222.518 106.855 212.565Z" fill="#2F2E41"/>
<path d="M543.718 259.008C551.382 315.953 540.945 372.96 487.861 395.158C434.776 417.357 373.717 392.391 351.481 339.396C329.246 286.4 381.709 254.691 407.338 203.246C459.382 98.7756 519.916 82.1678 543.718 259.008Z" fill="#F2F2F2"/>
<path d="M448.151 409.574C494.085 409.574 531.323 404.517 531.323 398.278C531.323 392.04 494.085 386.982 448.151 386.982C402.216 386.982 364.979 392.04 364.979 398.278C364.979 404.517 402.216 409.574 448.151 409.574Z" fill="#3F3D56"/>
<path d="M393.741 369.53L396.869 380.828L417.146 375.232L414.018 363.934L393.741 369.53Z" fill="#2F2E41"/>
<path d="M395.138 382.826C397.091 382.287 397.508 377.635 396.068 372.435C394.628 367.235 391.877 363.457 389.924 363.996C387.971 364.535 387.554 369.187 388.994 374.387C390.434 379.587 393.185 383.365 395.138 382.826Z" fill="#2F2E41"/>
<path d="M457.743 330.67C459.176 320.112 457.647 311.188 454.327 310.739C451.006 310.29 447.153 318.485 445.719 329.043C444.286 339.602 445.815 348.525 449.135 348.975C452.456 349.424 456.309 341.229 457.743 330.67Z" fill="#2F2E41"/>
<path d="M447.947 404.561C469.293 404.561 486.598 387.285 486.598 365.975C486.598 344.665 469.293 327.39 447.947 327.39C426.601 327.39 409.297 344.665 409.297 365.975C409.297 387.285 426.601 404.561 447.947 404.561Z" fill="#2F2E41"/>
<path d="M393.741 362.692L396.869 373.99L417.146 368.394L414.018 357.096L393.741 362.692Z" fill="#2F2E41"/>
<path d="M395.138 375.988C397.091 375.449 397.508 370.796 396.068 365.596C394.628 360.396 391.877 356.618 389.924 357.157C387.971 357.696 387.554 362.348 388.994 367.548C390.434 372.748 393.185 376.527 395.138 375.988Z" fill="#2F2E41"/>
<path d="M458.096 357.058C465.392 357.058 471.306 351.154 471.306 343.871C471.306 336.588 465.392 330.684 458.096 330.684C450.801 330.684 444.887 336.588 444.887 343.871C444.887 351.154 450.801 357.058 458.096 357.058Z" fill="white"/>
<path d="M462.321 342.441C464.753 342.441 466.724 340.473 466.724 338.045C466.724 335.617 464.753 333.649 462.321 333.649C459.889 333.649 457.917 335.617 457.917 338.045C457.917 340.473 459.889 342.441 462.321 342.441Z" fill="#3F3D56"/>
<path d="M492.581 392.491C506.884 391.776 517.838 378.42 517.048 362.66C516.258 346.899 504.023 334.702 489.72 335.417C475.417 336.131 473.173 347.34 473.963 363.101C474.753 378.861 478.278 393.205 492.581 392.491Z" fill="#3B3AA3"/>
<path d="M432.151 349.649C429.824 349.837 427.517 349.093 425.738 347.583C423.959 346.073 422.854 343.919 422.665 341.595C422.477 339.272 423.221 336.968 424.733 335.192C426.246 333.416 428.403 332.312 430.73 332.123C435.578 331.731 436.9 335.574 437.293 340.413C437.685 345.253 436.999 349.257 432.151 349.649Z" fill="white"/>
<path d="M24.2002 186.59H240.689L274.253 202.914L327.73 228.923L362.696 163.566H461.641" stroke="#3F3D56" stroke-width="2" stroke-miterlimit="10"/>
<path d="M109.01 200.113C112.708 200.113 115.705 197.12 115.705 193.428C115.705 189.737 112.708 186.744 109.01 186.744C105.312 186.744 102.314 189.737 102.314 193.428C102.314 197.12 105.312 200.113 109.01 200.113Z" fill="#3B3AA3"/>
<path d="M171.501 193.275C175.199 193.275 178.197 190.282 178.197 186.591C178.197 182.899 175.199 179.906 171.501 179.906C167.803 179.906 164.806 182.899 164.806 186.591C164.806 190.282 167.803 193.275 171.501 193.275Z" fill="#3B3AA3"/>
<path d="M274.166 209.614C277.864 209.614 280.862 206.621 280.862 202.929C280.862 199.238 277.864 196.245 274.166 196.245C270.468 196.245 267.471 199.238 267.471 202.929C267.471 206.621 270.468 209.614 274.166 209.614Z" fill="#3B3AA3"/>
<path d="M418.492 170.251C422.19 170.251 425.187 167.259 425.187 163.567C425.187 159.875 422.19 156.883 418.492 156.883C414.794 156.883 411.796 159.875 411.796 163.567C411.796 167.259 414.794 170.251 418.492 170.251Z" fill="#3B3AA3"/>
<path d="M348.561 196.245C352.259 196.245 355.256 193.253 355.256 189.561C355.256 185.87 352.259 182.877 348.561 182.877C344.863 182.877 341.865 185.87 341.865 189.561C341.865 193.253 344.863 196.245 348.561 196.245Z" fill="#3B3AA3"/>
<path d="M209.19 301.453C213.177 301.453 216.409 298.226 216.409 294.246C216.409 290.266 213.177 287.039 209.19 287.039C205.203 287.039 201.971 290.266 201.971 294.246C201.971 298.226 205.203 301.453 209.19 301.453Z" stroke="#3F3D56" stroke-width="2" stroke-miterlimit="10"/>
<path d="M83.172 416.9C129.107 416.9 166.344 411.843 166.344 405.604C166.344 399.366 129.107 394.309 83.172 394.309C37.2374 394.309 0 399.366 0 405.604C0 411.843 37.2374 416.9 83.172 416.9Z" fill="#3F3D56"/>
<path d="M78.673 388.998C100.019 388.998 117.324 371.723 117.324 350.413C117.324 329.102 100.019 311.827 78.673 311.827C57.3269 311.827 40.0225 329.102 40.0225 350.413C40.0225 371.723 57.3269 388.998 78.673 388.998Z" fill="#2F2E41"/>
<path d="M72.802 380.695H61.0601V401.698H72.802V380.695Z" fill="#2F2E41"/>
<path d="M96.2859 380.695H84.5439V401.698H96.2859V380.695Z" fill="#2F2E41"/>
<path d="M70.845 405.605C76.2491 405.605 80.63 403.965 80.63 401.941C80.63 399.918 76.2491 398.278 70.845 398.278C65.4409 398.278 61.0601 399.918 61.0601 401.941C61.0601 403.965 65.4409 405.605 70.845 405.605Z" fill="#2F2E41"/>
<path d="M94.3289 405.116C99.733 405.116 104.114 403.476 104.114 401.453C104.114 399.43 99.733 397.79 94.3289 397.79C88.9248 397.79 84.5439 399.43 84.5439 401.453C84.5439 403.476 88.9248 405.116 94.3289 405.116Z" fill="#2F2E41"/>
<path d="M79.6516 353.832C86.9471 353.832 92.8613 347.928 92.8613 340.644C92.8613 333.361 86.9471 327.457 79.6516 327.457C72.3561 327.457 66.4419 333.361 66.4419 340.644C66.4419 347.928 72.3561 353.832 79.6516 353.832Z" fill="white"/>
<path d="M79.6518 345.04C82.0836 345.04 84.055 343.072 84.055 340.644C84.055 338.216 82.0836 336.248 79.6518 336.248C77.2199 336.248 75.2485 338.216 75.2485 340.644C75.2485 343.072 77.2199 345.04 79.6518 345.04Z" fill="#3F3D56"/>
<path d="M41.1808 314.529C38.0599 300.576 48.036 286.477 63.4631 283.038C78.8901 279.6 93.9261 288.123 97.0469 302.076C100.168 316.029 89.9438 321.175 74.5167 324.614C59.0897 328.053 44.3016 328.483 41.1808 314.529Z" fill="#3B3AA3"/>
<path d="M65.4635 278.126C86.8096 278.126 104.114 260.851 104.114 239.541C104.114 218.23 86.8096 200.955 65.4635 200.955C44.1174 200.955 26.813 218.23 26.813 239.541C26.813 260.851 44.1174 278.126 65.4635 278.126Z" fill="#2F2E41"/>
<path d="M59.5925 269.823H47.8506V290.825H59.5925V269.823Z" fill="#2F2E41"/>
<path d="M83.0764 269.823H71.3345V290.825H83.0764V269.823Z" fill="#2F2E41"/>
<path d="M57.6355 294.733C63.0396 294.733 67.4205 293.093 67.4205 291.069C67.4205 289.046 63.0396 287.406 57.6355 287.406C52.2315 287.406 47.8506 289.046 47.8506 291.069C47.8506 293.093 52.2315 294.733 57.6355 294.733Z" fill="#2F2E41"/>
<path d="M81.1194 294.244C86.5235 294.244 90.9044 292.604 90.9044 290.581C90.9044 288.558 86.5235 286.918 81.1194 286.918C75.7153 286.918 71.3345 288.558 71.3345 290.581C71.3345 292.604 75.7153 294.244 81.1194 294.244Z" fill="#2F2E41"/>
<path d="M66.4421 242.96C73.7376 242.96 79.6518 237.056 79.6518 229.772C79.6518 222.489 73.7376 216.585 66.4421 216.585C59.1466 216.585 53.2324 222.489 53.2324 229.772C53.2324 237.056 59.1466 242.96 66.4421 242.96Z" fill="white"/>
<path d="M66.4418 234.168C68.8736 234.168 70.845 232.2 70.845 229.772C70.845 227.344 68.8736 225.376 66.4418 225.376C64.01 225.376 62.0386 227.344 62.0386 229.772C62.0386 232.2 64.01 234.168 66.4418 234.168Z" fill="#3F3D56"/>
<path d="M27.9713 203.657C24.8505 189.704 34.8266 175.605 50.2536 172.166C65.6806 168.727 80.7166 177.251 83.8375 191.204C86.9583 205.157 76.7343 210.303 61.3073 213.742C45.8803 217.181 31.0921 217.61 27.9713 203.657Z" fill="#3B3AA3"/>
<path d="M39.3913 229.905C40.8271 226.882 34.1735 220.731 24.5301 216.165C14.8867 211.599 5.90526 210.347 4.46943 213.37C3.0336 216.392 9.68715 222.543 19.3305 227.109C28.9739 231.675 37.9554 232.927 39.3913 229.905Z" fill="#2F2E41"/>
<path d="M46.4785 253.461C46.4785 257.237 56.2187 264.694 67.0269 264.694C77.8351 264.694 87.9689 254.062 87.9689 250.286C87.9689 246.509 77.8351 251.018 67.0269 251.018C56.2187 251.018 46.4785 249.684 46.4785 253.461Z" fill="white"/>
<path d="M470.462 286.074H408.753V317.412H470.462V286.074Z" fill="#3B3AA3"/>
<path d="M465.633 291.163H403.924V322.501H465.633V291.163Z" stroke="#3F3D56" stroke-width="2" stroke-miterlimit="10"/>
<path d="M128.478 107.453H110.865V125.036H128.478V107.453Z" fill="#FF6584"/>
<path d="M124.075 101.592H106.462V119.175H124.075V101.592Z" stroke="#3F3D56" stroke-width="2" stroke-miterlimit="10"/>
<path d="M443.283 141.384C464.629 141.384 481.934 124.108 481.934 102.798C481.934 81.4882 464.629 64.2129 443.283 64.2129C421.937 64.2129 404.633 81.4882 404.633 102.798C404.633 124.108 421.937 141.384 443.283 141.384Z" fill="#2F2E41"/>
<path d="M458.21 152.217L469.764 150.129L466.017 129.463L454.463 131.551L458.21 152.217Z" fill="#2F2E41"/>
<path d="M435.103 156.395L446.657 154.307L442.91 133.64L431.356 135.728L435.103 156.395Z" fill="#2F2E41"/>
<path d="M441.237 160.744C445.361 157.257 447.642 153.179 446.332 151.635C445.023 150.091 440.618 151.666 436.494 155.153C432.37 158.639 430.089 162.717 431.398 164.261C432.708 165.805 437.113 164.23 441.237 160.744Z" fill="#2F2E41"/>
<path d="M463.864 156.655C467.987 153.168 470.269 149.09 468.959 147.546C467.649 146.002 463.245 147.577 459.121 151.064C454.997 154.55 452.716 158.628 454.025 160.172C455.335 161.716 459.74 160.141 463.864 156.655Z" fill="#2F2E41"/>
<path d="M440.578 106.548C447.873 106.548 453.788 100.643 453.788 93.3603C453.788 86.0771 447.873 80.1729 440.578 80.1729C433.282 80.1729 427.368 86.0771 427.368 93.3603C427.368 100.643 433.282 106.548 440.578 106.548Z" fill="white"/>
<path d="M435.149 93.0289C437.581 93.0289 439.552 91.0609 439.552 88.6331C439.552 86.2054 437.581 84.2373 435.149 84.2373C432.717 84.2373 430.746 86.2054 430.746 88.6331C430.746 91.0609 432.717 93.0289 435.149 93.0289Z" fill="#3F3D56"/>
<path d="M473.773 60.8218C474.355 46.5368 462.022 34.4375 446.228 33.797C430.435 33.1565 417.16 44.2175 416.579 58.5024C415.997 72.7873 426.976 76.033 442.77 76.6734C458.564 77.3139 473.192 75.1067 473.773 60.8218Z" fill="#3B3AA3"/>
<path d="M426.432 100.08C427.18 96.8193 419.354 92.2463 408.95 89.8658C398.547 87.4852 389.507 88.1984 388.758 91.4588C388.01 94.7192 395.836 99.2921 406.24 101.673C416.643 104.053 425.683 103.34 426.432 100.08Z" fill="#2F2E41"/>
<path d="M502.301 112.675C503.05 109.415 495.223 104.842 484.82 102.461C474.417 100.081 465.377 100.794 464.628 104.055C463.879 107.315 471.706 111.888 482.109 114.268C492.512 116.649 501.553 115.936 502.301 112.675Z" fill="#2F2E41"/>
<path d="M453.899 118.005C454.105 119.141 454.085 120.306 453.84 121.435C453.595 122.563 453.129 123.632 452.47 124.581C451.811 125.529 450.971 126.339 449.999 126.964C449.026 127.589 447.94 128.016 446.802 128.222C445.664 128.428 444.497 128.408 443.367 128.163C442.236 127.918 441.166 127.453 440.215 126.796C439.265 126.138 438.454 125.299 437.828 124.328C437.202 123.358 436.774 122.273 436.568 121.137C435.701 116.359 439.402 114.669 444.188 113.804C448.973 112.939 453.033 113.227 453.899 118.005Z" fill="white"/>
<path d="M348.639 58.6104L393.161 92.8" stroke="#3F3D56" stroke-width="2" stroke-miterlimit="10"/>
<path d="M327.602 76.6824C345.976 76.6824 360.871 61.8125 360.871 43.4696C360.871 25.1267 345.976 10.2568 327.602 10.2568C309.228 10.2568 294.333 25.1267 294.333 43.4696C294.333 61.8125 309.228 76.6824 327.602 76.6824Z" fill="#FF6584"/>
<path d="M443.235 339.839C444.669 329.281 443.14 320.357 439.819 319.908C436.499 319.458 432.645 327.654 431.212 338.212C429.778 348.771 431.308 357.694 434.628 358.144C437.948 358.593 441.802 350.398 443.235 339.839Z" fill="#2F2E41"/>
<path d="M33.6657 400.854C37.3636 400.854 40.3613 397.861 40.3613 394.17C40.3613 390.478 37.3636 387.485 33.6657 387.485C29.9679 387.485 26.9702 390.478 26.9702 394.17C26.9702 397.861 29.9679 400.854 33.6657 400.854Z" fill="#3B3AA3"/>
<path d="M143.155 386.343H125.542V403.926H143.155V386.343Z" fill="#FF6584"/>
<path d="M125.644 404.762C129.342 404.762 132.34 401.769 132.34 398.078C132.34 394.386 129.342 391.394 125.644 391.394C121.946 391.394 118.949 394.386 118.949 398.078C118.949 401.769 121.946 404.762 125.644 404.762Z" fill="#3B3AA3"/>
<path d="M226.011 141.501C229.709 141.501 232.707 138.509 232.707 134.817C232.707 131.125 229.709 128.133 226.011 128.133C222.314 128.133 219.316 131.125 219.316 134.817C219.316 138.509 222.314 141.501 226.011 141.501Z" fill="#3B3AA3"/>
<path d="M356.035 345.211C357.801 345.211 359.233 343.782 359.233 342.019C359.233 340.256 357.801 338.827 356.035 338.827C354.269 338.827 352.838 340.256 352.838 342.019C352.838 343.782 354.269 345.211 356.035 345.211Z" fill="#FF6584"/>
<path d="M371.7 395V358.655" stroke="#3F3D56" stroke-width="2" stroke-miterlimit="10"/>
<path d="M371.701 363.796C374.544 363.796 376.849 361.495 376.849 358.656C376.849 355.818 374.544 353.517 371.701 353.517C368.857 353.517 366.552 355.818 366.552 358.656C366.552 361.495 368.857 363.796 371.701 363.796Z" fill="#3F3D56"/>
<path d="M371.7 381.056C371.7 381.056 370.965 365.264 355.888 367.1L371.7 381.056Z" fill="#3F3D56"/>
<path opacity="0.1" fill-rule="evenodd" clip-rule="evenodd" d="M241.013 0.674421C292.283 2.0458 348.698 7.32829 384.794 43.7509C419.424 78.6941 405.234 136.535 421.619 182.915C438.681 231.214 491.267 269.524 482.371 319.968C473.37 371.008 424.665 407.447 378.029 430.09C335.86 450.565 287.676 441.653 241.013 437.154C199.099 433.113 158.184 426.832 121.945 405.398C82.6611 382.163 36.7836 355.591 27.5585 310.905C18.4257 266.666 66.9012 232.346 77.1362 188.348C88.9909 137.388 57.1122 75.3229 91.5305 35.9066C126.04 -3.61402 188.554 -0.72877 241.013 0.674421Z" fill="#3B3AA3"/>
</svg>
